<svg width="78" height="33" viewBox="0 0 78 33" fill="none" xmlns="http://www.w3.org/2000/svg">
<path d="M5.90217 28.34C5.47017 28.22 5.12217 28.112 4.85817 28.016C4.59417 27.944 4.46217 27.908 4.46217 27.908C4.51017 27.788 4.48617 27.68 4.39017 27.584C4.31817 27.488 4.15017 27.428 3.88617 27.404C3.52617 27.164 3.15417 26.828 2.77017 26.396C2.38617 25.964 2.05017 25.52 1.76217 25.064C1.47417 24.608 1.28217 24.272 1.18617 24.056C1.01817 23.696 1.03017 23.48 1.22217 23.408C1.41417 23.312 1.64217 23.204 1.90617 23.084C2.17017 22.892 2.44617 22.748 2.73417 22.652C3.04617 22.556 3.29817 22.712 3.49017 23.12C3.80217 23.672 4.28217 24.14 4.93017 24.524C5.60217 24.908 6.35817 25.136 7.19817 25.208C8.06217 25.28 8.92617 25.136 9.79017 24.776C10.3662 24.512 10.6782 24.152 10.7262 23.696C10.7742 23.216 10.5942 22.664 10.1862 22.04C10.1142 21.848 10.0062 21.692 9.86217 21.572C9.74217 21.452 9.55017 21.296 9.28617 21.104C9.04617 20.912 8.69817 20.6 8.24217 20.168C7.88217 20 7.54617 19.844 7.23417 19.7C6.94617 19.556 6.63417 19.4 6.29817 19.232C5.91417 19.04 5.48217 18.776 5.00217 18.44C4.52217 18.08 4.07817 17.696 3.67017 17.288C3.26217 16.856 2.95017 16.448 2.73417 16.064C2.35017 15.704 2.11017 15.212 2.01417 14.588C1.91817 13.94 1.93017 13.256 2.05017 12.536C2.19417 11.816 2.42217 11.168 2.73417 10.592C2.87817 10.256 3.14217 9.824 3.52617 9.296C3.91017 8.744 4.34217 8.18 4.82217 7.604C5.30217 7.028 5.75817 6.512 6.19017 6.056C6.64617 5.576 7.00617 5.252 7.27017 5.084C7.46217 4.892 7.66617 4.7 7.88217 4.508C8.09817 4.292 8.20617 4.184 8.20617 4.184C8.23017 4.064 8.26617 4.004 8.31417 4.004C8.38617 4.004 8.42217 4.004 8.42217 4.004C8.54217 3.932 8.80617 3.812 9.21417 3.644C9.62217 3.476 10.0662 3.164 10.5462 2.708C12.1542 1.94 13.5222 1.424 14.6502 1.16C15.7782 0.871999 16.6662 0.727999 17.3142 0.727999C17.9142 0.751999 18.5022 0.919999 19.0782 1.232C19.6542 1.52 20.1462 1.892 20.5542 2.348C20.9862 2.804 21.2382 3.32 21.3102 3.896C21.4782 4.472 21.3942 5.168 21.0582 5.984C20.7462 6.776 20.3022 7.532 19.7262 8.252C19.1742 8.948 18.5982 9.464 17.9982 9.8C17.3262 10.088 16.7502 10.124 16.2702 9.908C15.8142 9.692 15.5982 9.356 15.6222 8.9C15.6222 8.708 15.6822 8.48 15.8022 8.216C15.9462 7.952 16.3182 7.484 16.9182 6.812C17.6862 5.684 18.0942 4.88 18.1422 4.4C18.1902 3.92 17.9742 3.644 17.4942 3.572C17.3502 3.524 17.0742 3.536 16.6662 3.608C16.2582 3.68 15.8142 3.776 15.3342 3.896C14.8782 3.992 14.4702 4.1 14.1102 4.22C13.7742 4.34 13.6062 4.424 13.6062 4.472C13.6062 4.472 13.6062 4.508 13.6062 4.58C13.6062 4.652 13.5582 4.676 13.4622 4.652C13.4142 4.652 13.2462 4.736 12.9582 4.904C12.6942 5.048 12.3702 5.24 11.9862 5.48C11.6022 5.72 11.2182 5.972 10.8342 6.236C10.4742 6.476 10.1622 6.692 9.89817 6.884C9.63417 7.076 9.49017 7.196 9.46617 7.244C9.41817 7.508 9.14217 7.748 8.63817 7.964C8.15817 8.252 7.73817 8.66 7.37817 9.188C7.01817 9.716 6.59817 10.388 6.11817 11.204C5.71017 11.756 5.42217 12.356 5.25417 13.004C5.08617 13.628 5.08617 14.132 5.25417 14.516C5.37417 14.9 5.69817 15.284 6.22617 15.668C6.77817 16.028 7.52217 16.484 8.45817 17.036C9.27417 17.492 10.0422 17.972 10.7622 18.476C11.4822 18.98 12.0942 19.472 12.5982 19.952C13.1022 20.408 13.4262 20.792 13.5702 21.104C13.8582 21.512 14.0262 21.98 14.0742 22.508C14.1462 23.036 14.1462 23.552 14.0742 24.056C14.0262 24.536 13.9542 24.932 13.8582 25.244C13.6902 25.628 13.4262 26.036 13.0662 26.468C12.7302 26.9 12.4182 27.104 12.1302 27.08C11.8662 27.152 11.6622 27.236 11.5182 27.332C11.3982 27.428 11.2542 27.512 11.0862 27.584C10.9182 27.68 10.5222 27.788 9.89817 27.908C9.27417 28.052 8.59017 28.16 7.84617 28.232C7.10217 28.328 6.45417 28.364 5.90217 28.34ZM19.11 26.108C18.918 26.036 18.666 25.844 18.354 25.532C18.042 25.196 17.766 24.836 17.526 24.452C17.286 24.044 17.166 23.708 17.166 23.444C17.286 23.18 17.442 22.712 17.634 22.04C17.85 21.368 18.09 20.612 18.354 19.772C18.546 19.508 18.69 19.208 18.786 18.872C18.906 18.512 19.014 18.188 19.11 17.9C19.302 17.468 19.518 16.976 19.758 16.424C19.998 15.872 20.226 15.308 20.442 14.732C20.682 14.156 20.898 13.652 21.09 13.22C21.426 12.5 21.702 11.876 21.918 11.348C22.158 10.796 22.386 10.256 22.602 9.728C22.842 9.2 23.094 8.612 23.358 7.964C23.718 7.22 24.042 6.488 24.33 5.768C24.642 5.024 24.906 4.364 25.122 3.788C25.362 3.212 25.506 2.804 25.554 2.564C25.53 2.372 25.554 2.24 25.626 2.168C25.698 2.072 25.794 2.012 25.914 1.988C26.034 1.916 26.226 1.868 26.49 1.844C26.754 1.82 26.934 1.808 27.03 1.808C27.318 1.856 27.606 2.096 27.894 2.528C28.206 2.936 28.362 3.284 28.362 3.572C28.362 3.956 28.17 4.676 27.786 5.732C27.426 6.764 26.898 7.988 26.202 9.404C25.362 11.204 24.726 12.596 24.294 13.58C23.886 14.564 23.61 15.26 23.466 15.668C23.322 16.076 23.262 16.34 23.286 16.46C23.286 16.46 23.382 16.424 23.574 16.352C23.766 16.28 24.054 16.112 24.438 15.848C24.702 15.68 25.002 15.464 25.338 15.2C25.674 14.936 25.998 14.696 26.31 14.48C26.646 14.264 26.91 14.132 27.102 14.084C27.222 13.988 27.39 13.868 27.606 13.724C27.822 13.58 28.026 13.448 28.218 13.328C28.674 12.992 29.034 12.884 29.298 13.004C29.562 13.124 29.802 13.328 30.018 13.616C30.282 13.928 30.378 14.264 30.306 14.624C30.258 14.96 29.886 15.404 29.19 15.956C28.662 16.34 28.098 16.712 27.498 17.072C26.898 17.408 26.346 17.708 25.842 17.972C25.362 18.236 25.014 18.452 24.798 18.62C24.798 18.62 24.906 18.776 25.122 19.088C25.338 19.4 25.542 19.7 25.734 19.988C25.926 20.372 26.166 20.864 26.454 21.464C26.742 22.04 26.958 22.448 27.102 22.688C27.366 23.072 27.63 23.324 27.894 23.444C28.182 23.564 28.602 23.528 29.154 23.336C29.514 23.24 29.814 23.252 30.054 23.372C30.318 23.468 30.534 23.636 30.702 23.876C30.798 24.068 30.846 24.26 30.846 24.452C30.846 24.644 30.69 24.872 30.378 25.136C29.706 25.592 29.046 25.976 28.398 26.288C27.774 26.624 27.174 26.6 26.598 26.216C26.094 25.832 25.614 25.4 25.158 24.92C24.726 24.416 24.234 23.804 23.682 23.084C23.682 22.988 23.61 22.784 23.466 22.472C23.322 22.16 23.226 21.98 23.178 21.932C23.082 21.74 22.974 21.572 22.854 21.428C22.758 21.26 22.71 21.176 22.71 21.176C22.638 20.912 22.542 20.696 22.422 20.528C22.326 20.36 22.194 20.264 22.026 20.24C21.93 20.312 21.822 20.432 21.702 20.6C21.582 20.768 21.462 20.972 21.342 21.212C21.198 21.572 21.054 21.932 20.91 22.292C20.766 22.628 20.646 23 20.55 23.408C20.454 23.792 20.394 24.26 20.37 24.812C20.394 25.076 20.286 25.364 20.046 25.676C19.806 25.964 19.494 26.108 19.11 26.108ZM32.0264 25.388C31.8344 25.196 31.6904 24.908 31.5944 24.524C31.5224 24.14 31.4984 23.768 31.5224 23.408C31.5464 23.024 31.6064 22.736 31.7024 22.544C31.7024 22.352 31.7264 22.208 31.7744 22.112C31.8464 21.992 31.8704 21.884 31.8464 21.788C31.8224 21.692 31.8464 21.524 31.9184 21.284C31.9904 21.044 32.0624 20.816 32.1344 20.6C32.3024 20.216 32.4944 19.724 32.7104 19.124C32.9264 18.5 33.1424 17.876 33.3584 17.252C33.5744 16.604 33.7544 16.052 33.8984 15.596C34.0424 15.116 34.1264 14.828 34.1504 14.732C34.1504 14.444 34.3424 14.288 34.7264 14.264C35.0144 14.168 35.3624 14.288 35.7704 14.624C36.1784 14.96 36.5024 15.32 36.7424 15.704C36.9344 15.896 37.0064 16.148 36.9584 16.46C36.9104 16.772 36.7544 17.216 36.4904 17.792C36.3944 17.984 36.2744 18.308 36.1304 18.764C36.0104 19.196 35.9264 19.556 35.8784 19.844C35.7824 20.036 35.6624 20.312 35.5184 20.672C35.3984 21.008 35.2904 21.332 35.1944 21.644C35.1464 21.764 35.0984 21.992 35.0504 22.328C35.0024 22.64 34.9424 22.964 34.8704 23.3C34.7984 23.636 34.7024 23.9 34.5824 24.092C34.3664 25.076 33.9824 25.652 33.4304 25.82C32.9024 25.988 32.4344 25.844 32.0264 25.388ZM35.9144 10.952C35.6504 10.76 35.4464 10.532 35.3024 10.268C35.1824 9.98 35.1104 9.728 35.0864 9.512C35.0864 9.296 35.1104 9.164 35.1584 9.116C35.3984 8.852 35.6024 8.504 35.7704 8.072C35.9624 7.64 36.1664 7.244 36.3824 6.884C36.4304 6.812 36.4904 6.716 36.5624 6.596C36.6584 6.452 36.7544 6.368 36.8504 6.344C37.1384 6.152 37.5344 6.164 38.0384 6.38C38.5664 6.596 38.9504 6.896 39.1904 7.28C39.4064 7.736 39.4664 8.204 39.3704 8.684C39.2984 9.164 39.0464 9.668 38.6144 10.196C38.2544 10.676 37.7984 10.988 37.2464 11.132C36.6944 11.252 36.2504 11.192 35.9144 10.952ZM38.6608 32.66C38.3248 32.756 37.9768 32.672 37.6168 32.408C37.2808 32.144 37.0168 31.784 36.8248 31.328C36.6568 30.872 36.6568 30.404 36.8248 29.924C36.8728 29.78 36.9448 29.54 37.0408 29.204C37.1368 28.892 37.1968 28.616 37.2208 28.376C37.2448 28.208 37.3168 27.92 37.4368 27.512C37.5568 27.128 37.6888 26.744 37.8328 26.36C38.0008 25.976 38.1328 25.7 38.2288 25.532C38.3728 25.292 38.4688 25.016 38.5168 24.704C38.5888 24.392 38.6248 24.152 38.6248 23.984C38.6728 23.816 38.7328 23.624 38.8048 23.408C38.9008 23.192 38.9968 23.024 39.0928 22.904C39.1408 22.712 39.2128 22.508 39.3088 22.292C39.4048 22.052 39.5128 21.848 39.6328 21.68C39.6808 21.512 39.7168 21.308 39.7408 21.068C39.7888 20.828 39.8608 20.696 39.9568 20.672C39.9808 20.576 39.9928 20.48 39.9928 20.384C40.0168 20.288 40.0648 20.156 40.1368 19.988C40.1848 19.724 40.2928 19.34 40.4608 18.836C40.6288 18.332 40.8328 17.78 41.0728 17.18C41.3368 16.484 41.5168 15.884 41.6128 15.38C41.7088 14.852 41.5768 14.516 41.2168 14.372C41.0248 14.276 40.9048 14.06 40.8568 13.724C40.8088 13.364 40.8328 13.004 40.9288 12.644C41.0248 12.284 41.1688 12.068 41.3608 11.996C41.5768 11.9 41.8408 11.84 42.1528 11.816C42.4648 11.792 42.7408 11.792 42.9808 11.816C43.2448 11.816 43.3648 11.84 43.3408 11.888C43.3408 12.008 43.4008 12.08 43.5208 12.104C43.5688 12.032 43.6648 12.14 43.8088 12.428C43.9768 12.692 44.1328 12.992 44.2768 13.328C44.4208 13.664 44.4928 13.892 44.4928 14.012C44.4448 14.108 44.4208 14.168 44.4208 14.192C44.4208 14.192 44.4688 14.192 44.5648 14.192C44.5648 14.192 44.6968 14.132 44.9608 14.012C45.2248 13.868 45.5008 13.712 45.7888 13.544C46.1008 13.352 46.3048 13.208 46.4008 13.112C46.4008 13.112 46.4608 13.088 46.5808 13.04C46.7248 12.968 46.8448 12.884 46.9408 12.788C47.4208 12.596 47.9368 12.56 48.4888 12.68C49.0648 12.8 49.5208 13.016 49.8568 13.328C50.3368 13.928 50.6968 14.672 50.9368 15.56C51.2008 16.448 51.1648 17.312 50.8288 18.152C50.7808 18.272 50.6728 18.476 50.5048 18.764C50.3608 19.028 50.2168 19.28 50.0728 19.52C49.9288 19.736 49.8568 19.844 49.8568 19.844C49.3048 20.708 48.6928 21.428 48.0208 22.004C47.3728 22.58 46.6648 23.084 45.8968 23.516C45.6568 23.684 45.3208 23.84 44.8888 23.984C44.4808 24.128 44.0968 24.236 43.7368 24.308C43.4008 24.38 43.1968 24.392 43.1248 24.344C42.8608 24.152 42.6208 23.744 42.4048 23.12C42.2848 23.432 42.1648 23.744 42.0448 24.056C41.9488 24.344 41.8888 24.536 41.8648 24.632C41.8408 24.8 41.8168 24.944 41.7928 25.064C41.7688 25.16 41.7088 25.244 41.6128 25.316C41.6128 25.316 41.6008 25.364 41.5768 25.46C41.5528 25.556 41.4688 25.7 41.3248 25.892C41.0848 26.588 40.8928 27.128 40.7488 27.512C40.6048 27.92 40.4848 28.244 40.3888 28.484C40.3168 28.748 40.2448 29.024 40.1728 29.312C40.1248 29.96 39.9688 30.644 39.7048 31.364C39.4648 32.084 39.1168 32.516 38.6608 32.66ZM44.0248 20.96C44.1208 20.912 44.2888 20.828 44.5288 20.708C44.7928 20.588 45.0808 20.444 45.3928 20.276C45.7048 20.084 45.9928 19.904 46.2568 19.736C46.5448 19.544 46.7488 19.376 46.8688 19.232C47.0608 19.016 47.1688 18.848 47.1928 18.728C47.2168 18.584 47.2768 18.356 47.3728 18.044C47.4448 17.852 47.5288 17.636 47.6248 17.396C47.7208 17.156 47.8048 16.928 47.8768 16.712C47.9728 16.52 48.0088 16.328 47.9848 16.136C47.9848 15.92 47.9128 15.74 47.7688 15.596C47.6728 15.572 47.4448 15.608 47.0848 15.704C46.7488 15.8 46.3528 15.992 45.8968 16.28C45.4648 16.568 45.0328 16.988 44.6008 17.54C44.0968 18.188 43.7608 18.776 43.5928 19.304C43.4248 19.808 43.3888 20.216 43.4848 20.528C43.5808 20.816 43.7608 20.96 44.0248 20.96ZM55.9382 28.16C54.7622 28.136 54.0062 27.8 53.6702 27.152C53.3582 26.528 53.2742 25.736 53.4182 24.776C53.5622 24.32 53.6462 23.912 53.6702 23.552C53.7182 23.168 53.8262 22.928 53.9942 22.832C53.9942 22.832 54.0062 22.796 54.0302 22.724C54.0782 22.652 54.0662 22.58 53.9942 22.508C53.9942 22.196 54.1022 21.764 54.3182 21.212C54.3662 21.068 54.4262 20.9 54.4982 20.708C54.5942 20.492 54.6422 20.384 54.6422 20.384C54.5222 20.192 54.5222 20.036 54.6422 19.916C54.7622 19.796 54.8822 19.688 55.0022 19.592C55.1462 19.472 55.1582 19.34 55.0382 19.196C54.9902 19.1 55.0502 18.884 55.2182 18.548C55.3862 18.188 55.5782 17.816 55.7942 17.432C56.0102 17.048 56.1542 16.748 56.2262 16.532C56.2262 16.484 56.2862 16.316 56.4062 16.028C56.5262 15.74 56.6702 15.404 56.8382 15.02C57.0062 14.636 57.1622 14.288 57.3062 13.976C57.4742 13.664 57.5822 13.46 57.6302 13.364C57.8702 13.244 57.7742 13.16 57.3422 13.112C56.9102 13.064 56.4542 13.052 55.9742 13.076C55.2302 13.052 54.6302 13.016 54.1742 12.968C53.7422 12.92 53.3822 12.812 53.0942 12.644C52.8062 12.308 52.7702 11.912 52.9862 11.456C53.2022 10.976 53.5502 10.724 54.0302 10.7C54.3422 10.676 54.5822 10.664 54.7502 10.664C54.9422 10.664 55.1822 10.652 55.4702 10.628C55.7822 10.58 56.2622 10.52 56.9102 10.448L58.7462 10.304L58.8542 9.692C59.0462 9.38 59.1782 9.176 59.2502 9.08C59.3222 8.984 59.3702 8.888 59.3942 8.792C59.4182 8.672 59.4542 8.468 59.5022 8.18C59.5022 8.18 59.6102 7.988 59.8262 7.604C60.0422 7.196 60.1742 6.776 60.2222 6.344C60.5102 5.864 60.7622 5.432 60.9782 5.048C61.1942 4.64 61.3262 4.388 61.3742 4.292C61.7822 3.692 62.1782 3.368 62.5622 3.32C62.9702 3.272 63.3542 3.368 63.7142 3.608C63.9302 3.728 64.1342 3.884 64.3262 4.076C64.5182 4.244 64.6382 4.472 64.6862 4.76C64.7342 5.024 64.6262 5.372 64.3622 5.804C64.3142 5.9 64.2422 6.08 64.1462 6.344C64.0502 6.584 63.9782 6.788 63.9302 6.956C63.7862 7.124 63.6062 7.4 63.3902 7.784C63.1982 8.144 63.0662 8.516 62.9942 8.9C62.8022 9.308 62.6822 9.56 62.6342 9.656C62.5862 9.752 62.5142 9.8 62.4182 9.8C62.4662 10.04 62.6102 10.16 62.8502 10.16C63.0902 10.136 63.4862 10.112 64.0382 10.088C64.4942 10.04 64.8062 9.992 64.9742 9.944C65.1662 9.872 65.3822 9.896 65.6222 10.016C65.7422 10.184 65.8022 10.436 65.8022 10.772C65.8262 11.084 65.7902 11.396 65.6942 11.708C65.5982 11.996 65.4662 12.176 65.2982 12.248C65.1782 12.248 64.9262 12.32 64.5422 12.464C64.1822 12.584 63.7262 12.656 63.1742 12.68L61.2662 12.86L60.6542 14.084C60.4862 14.396 60.3422 14.684 60.2222 14.948C60.1022 15.188 60.0182 15.332 59.9702 15.38C59.9702 15.524 59.8862 15.74 59.7182 16.028C59.5742 16.316 59.4182 16.628 59.2502 16.964C59.1062 17.372 58.9382 17.744 58.7462 18.08C58.5782 18.416 58.4942 18.584 58.4942 18.584C58.3982 18.584 58.3502 18.656 58.3502 18.8C58.4702 19.088 58.4342 19.304 58.2422 19.448C58.1222 19.52 58.0142 19.628 57.9182 19.772C57.8462 19.892 57.8102 19.952 57.8102 19.952C57.9062 20.048 57.9182 20.168 57.8462 20.312C57.7982 20.456 57.7262 20.612 57.6302 20.78C57.6302 20.972 57.5702 21.248 57.4502 21.608C57.3542 21.968 57.2462 22.304 57.1262 22.616C57.1502 23.048 57.1742 23.324 57.1982 23.444C57.2222 23.564 57.2822 23.612 57.3782 23.588C57.4982 23.612 57.6662 23.612 57.8822 23.588C58.0982 23.564 58.2542 23.552 58.3502 23.552C58.7102 23.384 58.5422 24.224 57.8462 26.072C57.4622 26.672 57.0782 27.164 56.6942 27.548C56.3102 27.956 56.0582 28.16 55.9382 28.16ZM67.7122 25.496C67.5202 25.544 67.2682 25.568 66.9562 25.568C66.6442 25.544 66.3682 25.508 66.1282 25.46C65.9122 25.388 65.8042 25.316 65.8042 25.244C65.8042 25.124 65.7442 25.064 65.6242 25.064C65.6242 25.064 65.4922 24.968 65.2282 24.776C64.9642 24.56 64.7242 24.404 64.5082 24.308C64.2922 23.972 64.1482 23.588 64.0762 23.156C64.0282 22.7 64.1722 21.908 64.5082 20.78C64.5322 20.012 64.7482 19.208 65.1562 18.368C65.5642 17.504 66.0802 16.664 66.7042 15.848C67.3282 15.032 67.9762 14.312 68.6482 13.688C69.3202 13.04 69.9202 12.56 70.4482 12.248C70.7842 11.912 71.2282 11.732 71.7802 11.708C72.3562 11.684 72.8602 11.792 73.2922 12.032C73.5322 12.152 73.7962 12.392 74.0842 12.752C74.3722 13.112 74.6482 13.496 74.9122 13.904C75.1762 14.288 75.3802 14.636 75.5242 14.948C75.5962 15.212 75.6562 15.452 75.7042 15.668C75.7762 15.86 75.8242 16.1 75.8482 16.388C75.8722 16.676 75.8482 17.108 75.7762 17.684C75.6562 18.116 75.5482 18.56 75.4522 19.016C75.3802 19.448 75.3442 19.892 75.3442 20.348C75.2962 20.804 75.3442 21.128 75.4882 21.32C75.6562 21.512 75.8962 21.524 76.2082 21.356C76.4962 21.212 76.7962 21.2 77.1082 21.32C77.4202 21.416 77.6362 21.608 77.7562 21.896C77.9002 22.16 77.8642 22.508 77.6482 22.94C77.5042 23.252 77.2762 23.552 76.9642 23.84C76.6522 24.128 76.3042 24.368 75.9202 24.56C75.5362 24.728 75.1642 24.812 74.8042 24.812C74.5402 24.812 74.2762 24.716 74.0122 24.524C73.7482 24.308 73.5082 24.02 73.2922 23.66C73.0762 23.3 72.8962 22.904 72.7522 22.472L72.5362 21.644L71.2402 22.832C70.9282 23.168 70.6162 23.48 70.3042 23.768C70.0162 24.032 69.8362 24.224 69.7642 24.344C69.6442 24.56 69.4042 24.752 69.0442 24.92C68.7082 25.088 68.2642 25.28 67.7122 25.496ZM68.6842 22.04C69.0922 21.8 69.4402 21.512 69.7282 21.176C70.0402 20.84 70.3402 20.468 70.6282 20.06C70.9162 19.628 71.2282 19.172 71.5642 18.692C71.9722 18.14 72.2602 17.696 72.4282 17.36C72.6202 17.024 72.7642 16.664 72.8602 16.28C72.7642 16.016 72.6322 15.74 72.4642 15.452C72.2962 15.14 72.1282 14.972 71.9602 14.948C71.6242 14.948 71.2162 15.152 70.7362 15.56C70.2802 15.968 69.7762 16.556 69.2242 17.324C69.1282 17.444 69.0082 17.636 68.8642 17.9C68.7202 18.164 68.5762 18.416 68.4322 18.656C68.3122 18.872 68.2282 19.016 68.1802 19.088C68.1082 19.184 68.0002 19.412 67.8562 19.772C67.7362 20.108 67.6282 20.456 67.5322 20.816C67.4362 21.152 67.3882 21.392 67.3882 21.536C67.3882 21.68 67.4002 21.836 67.4242 22.004C67.4722 22.172 67.5922 22.28 67.7842 22.328C67.9762 22.376 68.2762 22.28 68.6842 22.04Z" fill="#FFD900"/>
</svg>
